<svg id="Layer_1" data-name="Layer 1" xmlns="http://www.w3.org/2000/svg" viewBox="0 0 1536 900"><defs><style>.cls-1{fill:#633;}.cls-2{fill:#cff;}.cls-3{fill:#e0e2df;}.cls-4{fill:#fefefe;}.cls-5{fill:#5f5e5f;}.cls-6{fill:#666;}.cls-7{fill:#6b6b6b;}.cls-8{fill:#7c7d7d;}.cls-9{fill:#7c7d7c;}.cls-10{fill:#7c7e7d;}.cls-11{fill:#7d7e7e;}.cls-12{fill:#4c4b4c;}.cls-13{fill:#4c4b4b;}.cls-14{fill:#eff0f2;}.cls-15{fill:#eff0f1;}.cls-16{fill:#ff0;}.cls-17{font-size:20px;}.cls-17,.cls-19{font-family:MyriadPro-Regular, Myriad Pro;}.cls-18{letter-spacing:0em;}.cls-19{font-size:19px;}.cls-20{letter-spacing:0em;}</style></defs><rect class="cls-1" y="760" width="1536" height="140"/><rect class="cls-2" width="1536" height="760"/><path class="cls-3" d="M1503.37,766.89l-283-.14c-9.65-7.45-7.37-18.3-7.41-28.09q-.45-134.88-.08-269.77c.13-48.88-1.24-97.76.81-146.62,4-8.8,11.18-8.06,18.17-5.06,4.55,2,8.78,4.59,13.84,5.11,51.63,17.28,104.41,30.73,156.48,46.6,28.46,8.67,57.22,16.3,85.73,24.8,6.74,2,14.6,3.73,16,12.88Z"/><path class="cls-4" d="M660.37,766.8l-104.66,0c-11.6-4.48-10.68-14.73-10.77-24.16-.49-52.2-.41-104.4-.14-156.6.29-55-1.42-110,1-165-.45-8-.55-15.91,6.73-21.5.18-57.14.27-114.28.65-171.42,0-6.17-3.12-14,5.83-17.39,7.41-4.87,14.11-1.15,20.6,2.05C635,240.13,690.13,268,745.37,295.61c7.64,3.83,14.89,8.22,16.36,17.83-8.4,41.12-15.81,82.44-24.34,123.55-7.85,37.83-15.14,75.81-22.35,113.8-12.31,64.9-25.9,129.56-38.06,194.49C675.15,755.08,670.65,763.29,660.37,766.8Z"/><path class="cls-4" d="M886.34,766.76l-107.94,0c-7.15-2.81-10.14-8.32-10.43-15.73-.16-3.92-.47-7.83-.47-11.76,0-139.58-.39-279.17.14-418.75,2.61-9.54-1.29-19.29.82-28.85,1.74-9.1-3.42-19.85,6.46-27,2.62-18.06-3.42-36.67,3.4-54.47,8.56-5.07,16.35-1.4,23.75,2.58,51.14,27.51,104.3,50.92,155.82,77.64,8.36,4.33,17.58,7.73,21.56,17.53,5.11,9.77,2.71,19.72.55,29.58-6.84,31.17-12.9,62.5-19.1,93.79C947.07,501.14,934,571.06,919.83,640.75c-6.91,34-12.52,68.16-19.55,102.09C898.27,752.53,895,761.1,886.34,766.76Z"/><path class="cls-4" d="M1105.75,766.8l-104.66,0c-7.17-2.79-10.13-8.32-10.43-15.72-.16-3.92-.47-7.83-.47-11.76,0-139.55-.4-279.11.15-418.66,2.57-9.53-1.19-19.18.43-28.73,2.29-8.9-3.63-19.77,6.38-26.83.22-13.47.29-26.95.73-40.42.17-5.16-2.16-11.89,6.26-13.34,6.89-2.67,13.13-.75,19.39,2.37q80.67,40.13,161.85,79.22c7.1,3.43,14,7.43,16.89,15.61,4.42,15.84.07,31.5-3.49,46.35-13,54.46-21.7,109.76-33.21,164.5-10.69,50.84-19.54,102.13-30.08,153-5.2,25.15-8,50.8-15,75.63C1118,756.8,1114.56,763.58,1105.75,766.8Z"/><path class="cls-4" d="M410.39,643.1c-5.6,19.68-1.56,39.77-2.39,59.66-.72,17.33-.55,34.73,0,52.07.32,9.34-2.55,12.93-12.3,12.64-22.94-.67-45.92-.39-68.88-.5q-.23-151.49-.44-303c2.7-7.31,8.87-9.41,15.73-10.8,54.3-11,108.63-21.77,162.92-32.79,6-1.22,12.25-1.5,18.21,1,18.71,8,13.93,24.72,11.51,37.84-10.25,55.48-22,110.68-32.25,166.18-1.51,8.22-2.48,17.25-14.23,17.12l-1.47-.39-1.43.51c-4.09,4.08-8.74,7.28-14.74,6.92C450.47,648.37,429.31,656.05,410.39,643.1Z"/><rect class="cls-5" x="1070.82" y="285.2" width="392.45" height="34.35" rx="12.7" transform="translate(185.6 -423.79) rotate(20.46)"/><rect class="cls-5" x="967.58" y="263.78" width="580.44" height="34.35" rx="12.7" transform="translate(177.53 -421.91) rotate(20.46)"/><rect class="cls-6" x="404" y="642" width="86" height="125"/><path class="cls-7" d="M1237.35,301.76q111.38,32.82,222.71,65.72c5.15,1.52,9.79,2.28,14-1.9,12.54,4.56,24.89,9.73,37.66,13.51,13,3.86,20,11.85,15.19,24.61s-15,3.79-23,2.9q-128-37.16-255.91-74.36a26.07,26.07,0,0,1-4.35-2.19C1236.19,321.8,1228.94,313.52,1237.35,301.76Z"/><path class="cls-8" d="M1237.35,301.76q3.15,14.14,6.28,28.29l-26.57-11.26c-10.88,4.9-13.78-6.19-20.25-10.11q-89-44.78-177.94-89.58c-5-2.5-9.82-5.18-14.73-7.78-4.58-5.53-12.22-4.93-17.59-8.64-9-6.22-11.68-16-7.09-24.85,4.35-8.36,12.6-2.76,19.16-.33,8.31,3.08,13.41,11.77,22.75,13.07,21.44,15.45,46.15,24.86,69.37,37C1139.31,252.85,1188.45,277.08,1237.35,301.76Z"/><path class="cls-9" d="M997.2,291.46q.15,13.31.31,26.63c-12.25,7.44-16.27-4.71-23.28-9.76L778.32,210.26c-4.42-2.28-8.78-4.7-13.28-6.82-10.38-4.88-11-12.83-7.6-22.44,3.85-10.74,11.27-6.61,17.9-4.24,4.64,1.66,8.89,4.41,13.32,6.67C816.3,199.36,845.89,211.26,875,224c36.52,16,71.78,34.48,107.62,51.82C989.55,279.2,994.14,284.56,997.2,291.46Z"/><path class="cls-10" d="M774.82,291.63l0,26.53c-8,4.75-12.8.53-16.73-6-32.92-20.4-68.78-35.09-103-52.89-31.83-16.53-64-32.36-96.06-48.5-10.57-6.52-26.76-6.91-24-26.77,1.58-11.42,4.35-14,14.35-8.48,5.37,3,11.09,5.31,16.64,7.94,31.69,18,65.9,30.59,98.79,46,30.49,14.29,60.47,29.58,90.81,44.13C764.14,277.67,769.92,284,774.82,291.63Z"/><path class="cls-11" d="M520.8,426.08,326.41,464c-2.72.65-5.42,1.37-8.16,1.93-7.31,1.48-15.48,3.47-17.78-6.61s5.25-11.49,13.07-13.06c75.22-15.16,150.38-30.62,225.59-45.87,4.35-.88,8.94-.6,13.41-.86a47.38,47.38,0,0,1-.23,20.22C543.93,432.46,531.47,424.77,520.8,426.08Z"/><path class="cls-12" d="M774.82,291.63Q671.89,240.12,569,188.58c-2-1-4.05-2.25-3-5.16l208.94,81.3Q774.88,278.17,774.82,291.63Z"/><path class="cls-13" d="M997.2,291.46Q895.89,240.82,794.62,190.12c-2.65-1.33-7-1.8-6-6.69l208.49,81.65Q997.17,278.27,997.2,291.46Z"/><path class="cls-14" d="M1196.81,308.68c7.48,1.9,14,5.72,20.25,10.11,3.69,6.72,3.38,14.07,3.38,21.39q0,213.29-.08,426.57l-114.61,0c8.57-14.38,9.93-30.93,12.92-46.74,11.41-60.37,23-120.68,36.11-180.73,8.56-39.33,14.55-79.21,21.88-118.81,5.79-31.34,15.16-62,19.13-93.68C1196.54,320.8,1199.42,314.9,1196.81,308.68Z"/><path class="cls-14" d="M974.23,308.33l23.28,9.76q.12,212,.29,424c0,8.34-1.22,16.91,3.29,24.68l-114.75,0q22.5-111.6,45-223.2,21.56-107.68,42.89-215.4C975.53,321.53,976.91,314.94,974.23,308.33Z"/><path class="cls-14" d="M758.12,312.12l16.73,6q.12,212,.27,424c0,8.34-1.22,16.91,3.28,24.68h-118c14.56-30.31,16.14-63.79,22.9-95.95,12.75-60.7,23.88-121.74,35.94-182.6,10.64-53.73,21.63-107.4,32.47-161.09C752.78,321.7,753.25,316,758.12,312.12Z"/><path class="cls-15" d="M520.8,426.08a109.83,109.83,0,0,1,31.51-6.32q0,162,.11,324.06c0,7.79-.93,15.75,3.29,23-18.45.18-36.92-.1-55.33.72-9.81.43-12.26-3.34-12.16-12.54.38-37.47.11-74.94.08-112.41,11.46-17.18,9.05-37.67,13.19-56.56,9.1-41.55,17.32-83.3,25.08-125.13C528.75,449.09,535.38,435.52,520.8,426.08Z"/><rect class="cls-16" x="-7.6" y="636.79" width="1552.55" height="22.57" transform="translate(87.82 -91.72) rotate(7.24)"/><rect x="1450.89" y="727.78" width="70.45" height="22.57" transform="translate(105.01 -181.43) rotate(7.24)"/><rect x="1179.65" y="693.31" width="70.45" height="22.57" transform="translate(98.5 -147.51) rotate(7.24)"/><rect x="908.02" y="659.07" width="70.45" height="22.57" transform="translate(92.02 -113.55) rotate(7.24)"/><rect x="636.02" y="624.07" width="70.45" height="22.57" transform="translate(85.44 -79.54) rotate(7.24)"/><rect x="366.43" y="589.56" width="70.45" height="22.57" transform="translate(78.94 -45.84) rotate(7.24)"/><rect x="95.43" y="555.56" width="70.45" height="22.57" transform="translate(72.49 -11.95) rotate(7.24)"/><text class="cls-17" transform="translate(1254.03 716.43) rotate(7.24)">Keep <tspan class="cls-18" x="46.5" y="0">O</tspan><tspan x="60.34" y="0">ut</tspan></text><text class="cls-17" transform="translate(1368.42 730.93) rotate(7.24)">Keep <tspan class="cls-18" x="46.5" y="0">O</tspan><tspan x="60.34" y="0">ut</tspan></text><text class="cls-19" transform="translate(986.57 680.62) rotate(7.24)">Keep <tspan class="cls-20" x="44.17" y="0">O</tspan><tspan x="57.32" y="0">ut</tspan></text><text class="cls-19" transform="translate(1103.41 696.15) rotate(7.24)">Keep <tspan class="cls-20" x="44.17" y="0">O</tspan><tspan x="57.32" y="0">ut</tspan></text><text class="cls-19" transform="translate(555.41 626.15) rotate(7.24)">Keep <tspan class="cls-20" x="44.17" y="0">O</tspan><tspan x="57.32" y="0">ut</tspan></text><text class="cls-19" transform="translate(822.41 661.15) rotate(7.24)">Keep <tspan class="cls-20" x="44.17" y="0">O</tspan><tspan x="57.32" y="0">ut</tspan></text><text class="cls-19" transform="translate(711.41 647.15) rotate(7.24)">Keep <tspan class="cls-20" x="44.17" y="0">O</tspan><tspan x="57.32" y="0">ut</tspan></text><text class="cls-19" transform="translate(439.94 612.76) rotate(7.24)">Keep <tspan class="cls-20" x="44.17" y="0">O</tspan><tspan x="57.32" y="0">ut</tspan></text><text class="cls-19" transform="translate(287.13 592.21) rotate(7.24)">Keep <tspan class="cls-20" x="44.17" y="0">O</tspan><tspan x="57.32" y="0">ut</tspan></text><text class="cls-19" transform="translate(170.26 577.4) rotate(7.24)">Keep <tspan class="cls-20" x="44.17" y="0">O</tspan><tspan x="57.32" y="0">ut</tspan></text><text class="cls-19" transform="translate(14.66 557.73) rotate(7.24)">Keep <tspan class="cls-20" x="44.17" y="0">O</tspan><tspan x="57.32" y="0">ut</tspan></text><rect class="cls-16" x="-9.22" y="647.05" width="1552.55" height="22.57" transform="translate(-74.89 98.95) rotate(-7.04)"/><rect x="1449.55" y="558.28" width="70.45" height="22.57" transform="translate(-58.6 186.23) rotate(-7.04)"/><rect x="1178.18" y="591.77" width="70.45" height="22.57" transform="translate(-64.75 153.23) rotate(-7.04)"/><rect x="906.5" y="625.59" width="70.45" height="22.57" transform="translate(-70.94 120.2) rotate(-7.04)"/><rect x="634.28" y="658.76" width="70.45" height="22.57" transform="translate(-77.06 87.09) rotate(-7.04)"/><rect x="364.5" y="691.81" width="70.45" height="22.57" transform="translate(-83.14 54.28) rotate(-7.04)"/><rect x="93.48" y="725.71" width="70.45" height="22.57" transform="translate(-89.34 21.33) rotate(-7.04)"/><text class="cls-17" transform="matrix(0.99, -0.12, 0.12, 0.99, 1254.32, 604.82)">Keep <tspan class="cls-18" x="46.5" y="0">O</tspan><tspan x="60.34" y="0">ut</tspan></text><text class="cls-17" transform="matrix(0.99, -0.12, 0.12, 0.99, 1368.76, 590.65)">Keep <tspan class="cls-18" x="46.5" y="0">O</tspan><tspan x="60.34" y="0">ut</tspan></text><text class="cls-19" transform="matrix(0.99, -0.12, 0.12, 0.99, 986.29, 636.08)">Keep <tspan class="cls-20" x="44.17" y="0">O</tspan><tspan x="57.32" y="0">ut</tspan></text><text class="cls-19" transform="matrix(0.99, -0.12, 0.12, 0.99, 1103.35, 622.31)">Keep <tspan class="cls-20" x="44.17" y="0">O</tspan><tspan x="57.32" y="0">ut</tspan></text><text class="cls-19" transform="matrix(0.99, -0.12, 0.12, 0.99, 555.02, 689.64)">Keep <tspan class="cls-20" x="44.17" y="0">O</tspan><tspan x="57.32" y="0">ut</tspan></text><text class="cls-19" transform="matrix(0.99, -0.12, 0.12, 0.99, 822.4, 657.7)">Keep <tspan class="cls-20" x="44.17" y="0">O</tspan><tspan x="57.32" y="0">ut</tspan></text><text class="cls-19" transform="matrix(0.99, -0.12, 0.12, 0.99, 711.38, 671.52)">Keep <tspan class="cls-20" x="44.17" y="0">O</tspan><tspan x="57.32" y="0">ut</tspan></text><text class="cls-19" transform="matrix(0.99, -0.12, 0.12, 0.99, 439.81, 705.15)">Keep <tspan class="cls-20" x="44.17" y="0">O</tspan><tspan x="57.32" y="0">ut</tspan></text><text class="cls-19" transform="matrix(0.99, -0.12, 0.12, 0.99, 286.66, 722.93)">Keep <tspan class="cls-20" x="44.17" y="0">O</tspan><tspan x="57.32" y="0">ut</tspan></text><text class="cls-19" transform="matrix(0.99, -0.12, 0.12, 0.99, 169.74, 737.39)">Keep <tspan class="cls-20" x="44.17" y="0">O</tspan><tspan x="57.32" y="0">ut</tspan></text><text class="cls-19" transform="matrix(0.99, -0.12, 0.12, 0.99, 14.09, 756.72)">Keep <tspan class="cls-20" x="44.17" y="0">O</tspan><tspan x="57.32" y="0">ut</tspan></text><circle cx="483.5" cy="713.5" r="2.5"/></svg>