<svg id="Layer_1" data-name="Layer 1" xmlns="http://www.w3.org/2000/svg" viewBox="0 0 1536 900"><defs><style>.cls-1{fill:#633;}.cls-2{fill:#cff;}.cls-3{fill:#e0e2df;}.cls-4{fill:#fefefe;}.cls-5{fill:#4a4a4a;}.cls-6{fill:#6b6b6b;}.cls-7{fill:#7c7d7d;}.cls-8{fill:#7c7d7c;}.cls-9{fill:#7c7e7d;}.cls-10{fill:#7d7e7e;}.cls-11{fill:#5f5f5f;}.cls-12{fill:#5f5e5f;}.cls-13{fill:#4c4b4c;}.cls-14{fill:#4c4b4b;}.cls-15{fill:#eff0f2;}.cls-16{fill:#eff0f1;}.cls-17{fill:#424244;}.cls-18{fill:#474747;}.cls-19{fill:#494949;}.cls-20{fill:#434345;}.cls-21{fill:#444445;}.cls-22{fill:#48484a;}.cls-23{fill:#474749;}.cls-24{fill:#4a4a4b;}.cls-25{fill:#484848;}.cls-26{fill:#444;}.cls-27{fill:#ff0;}.cls-28{font-size:20px;}.cls-28,.cls-30{font-family:MyriadPro-Regular, Myriad Pro;}.cls-29{letter-spacing:0em;}.cls-30{font-size:19px;}.cls-31{letter-spacing:0em;}</style></defs><rect class="cls-1" y="760" width="1536" height="140"/><rect class="cls-2" width="1536" height="760"/><path class="cls-3" d="M1503.37,766.89l-283-.14c-9.65-7.45-7.37-18.3-7.41-28.09q-.45-134.88-.08-269.77c.13-48.88-1.24-97.76.81-146.62,4-8.8,11.18-8.06,18.17-5.06,4.55,2,8.78,4.59,13.84,5.11,51.63,17.28,104.41,30.73,156.48,46.6,28.46,8.67,57.22,16.3,85.73,24.8,6.74,2,14.6,3.73,16,12.88Z"/><path class="cls-4" d="M660.37,766.8l-104.66,0c-11.6-4.48-10.68-14.73-10.77-24.16-.49-52.2-.41-104.4-.14-156.6.29-55-1.42-110,1-165-.45-8-.55-15.91,6.73-21.5.18-57.14.27-114.28.65-171.42,0-6.17-3.12-14,5.83-17.39,7.41-4.87,14.11-1.15,20.6,2.05C635,240.13,690.13,268,745.37,295.61c7.64,3.83,14.89,8.22,16.36,17.83-8.4,41.12-15.81,82.44-24.34,123.55-7.85,37.83-15.14,75.81-22.35,113.8-12.31,64.9-25.9,129.56-38.06,194.49C675.15,755.08,670.65,763.29,660.37,766.8Z"/><path class="cls-4" d="M886.34,766.76l-107.94,0c-7.15-2.81-10.14-8.32-10.43-15.73-.16-3.92-.47-7.83-.47-11.76,0-139.58-.39-279.17.14-418.75,2.61-9.54-1.29-19.29.82-28.85,1.74-9.1-3.42-19.85,6.46-27,2.62-18.06-3.42-36.67,3.4-54.47,8.56-5.07,16.35-1.4,23.75,2.58,51.14,27.51,104.3,50.92,155.82,77.64,8.36,4.33,17.58,7.73,21.56,17.53,5.11,9.77,2.71,19.72.55,29.58-6.84,31.17-12.9,62.5-19.1,93.79C947.07,501.14,934,571.06,919.83,640.75c-6.91,34-12.52,68.16-19.55,102.09C898.27,752.53,895,761.1,886.34,766.76Z"/><path class="cls-4" d="M1105.75,766.8l-104.66,0c-7.17-2.79-10.13-8.32-10.43-15.72-.16-3.92-.47-7.83-.47-11.76,0-139.55-.4-279.11.15-418.66,2.57-9.53-1.19-19.18.43-28.73,2.29-8.9-3.63-19.77,6.38-26.83.22-13.47.29-26.95.73-40.42.17-5.16-2.16-11.89,6.26-13.34,6.89-2.67,13.13-.75,19.39,2.37q80.67,40.13,161.85,79.22c7.1,3.43,14,7.43,16.89,15.61,4.42,15.84.07,31.5-3.49,46.35-13,54.46-21.7,109.76-33.21,164.5-10.69,50.84-19.54,102.13-30.08,153-5.2,25.15-8,50.8-15,75.63C1118,756.8,1114.56,763.58,1105.75,766.8Z"/><path class="cls-4" d="M410.39,643.1c-5.6,19.68-1.56,39.77-2.39,59.66-.72,17.33-.55,34.73,0,52.07.32,9.34-2.55,12.93-12.3,12.64-22.94-.67-45.92-.39-68.88-.5q-.23-151.49-.44-303c2.7-7.31,8.87-9.41,15.73-10.8,54.3-11,108.63-21.77,162.92-32.79,6-1.22,12.25-1.5,18.21,1,18.71,8,13.93,24.72,11.51,37.84-10.25,55.48-22,110.68-32.25,166.18-1.51,8.22-2.48,17.25-14.23,17.12l-1.47-.39-1.43.51c-4.09,4.08-8.74,7.28-14.74,6.92C450.47,648.37,429.31,656.05,410.39,643.1Z"/><path class="cls-5" d="M1344.49,133.46c4.89,54.69,10.12,109.35,14.46,164.09,1.26,15.92,5.65,26.24,22.72,32C1413,340,1443.3,353.39,1474,365.58c-2,12-11,9.63-18.14,7.71q-64.9-17.42-129.17-37.06c-29.92-9.16-60.49-16.35-89.7-27.78-41-19.09-81.22-40-121.7-60.23-26.51-13.26-53.2-26.21-79.39-40.12-7.18-3.81-16.25-6.26-14.57-17.53,23.59,3,43.93,15.3,65.81,23.15,26.72,9.58,52.86,20.74,79.25,31.22,18.08,7.29,19.87,6.71,19.33-11.79-1.24-42.05,8.63-83.37,7.39-125.38-.34-11.45,4.86-18.14,17.37-16.75,8.75,1,17.79-2.14,26.34,1.84,5.6,57.38,11.52,114.73,16.52,172.16.92,10.53,4.71,16.73,14.32,19.91,21.11,4.59,22.6,4.71,24.27-16.54,2.83-36.09,6.32-72.14,8.5-108.26,1.72-28.74.84-28.89,29.54-28.54C1334.84,131.64,1340.07,129.8,1344.49,133.46Z"/><path class="cls-6" d="M1237.35,301.76q111.38,32.82,222.71,65.72c5.15,1.52,9.79,2.28,14-1.9,12.54,4.56,24.89,9.73,37.66,13.51,13,3.86,20,11.85,15.19,24.61s-15,3.79-23,2.9q-128-37.16-255.91-74.36a26.07,26.07,0,0,1-4.35-2.19C1236.19,321.8,1228.94,313.52,1237.35,301.76Z"/><path class="cls-7" d="M1237.35,301.76q3.15,14.14,6.28,28.29l-26.57-11.26c-10.88,4.9-13.78-6.19-20.25-10.11q-89-44.78-177.94-89.58c-5-2.5-9.82-5.18-14.73-7.78-4.58-5.53-12.22-4.93-17.59-8.64-9-6.22-11.68-16-7.09-24.85,4.35-8.36,12.6-2.76,19.16-.33,8.31,3.08,13.41,11.77,22.75,13.07,21.44,15.45,46.15,24.86,69.37,37C1139.31,252.85,1188.45,277.08,1237.35,301.76Z"/><path class="cls-8" d="M997.2,291.46q.15,13.31.31,26.63c-12.25,7.44-16.27-4.71-23.28-9.76L778.32,210.26c-4.42-2.28-8.78-4.7-13.28-6.82-10.38-4.88-11-12.83-7.6-22.44,3.85-10.74,11.27-6.61,17.9-4.24,4.64,1.66,8.89,4.41,13.32,6.67C816.3,199.36,845.89,211.26,875,224c36.52,16,71.78,34.48,107.62,51.82C989.55,279.2,994.14,284.56,997.2,291.46Z"/><path class="cls-9" d="M774.82,291.63l0,26.53c-8,4.75-12.8.53-16.73-6-32.92-20.4-68.78-35.09-103-52.89-31.83-16.53-64-32.36-96.06-48.5-10.57-6.52-26.76-6.91-24-26.77,1.58-11.42,4.35-14,14.35-8.48,5.37,3,11.09,5.31,16.64,7.94,31.69,18,65.9,30.59,98.79,46,30.49,14.29,60.47,29.58,90.81,44.13C764.14,277.67,769.92,284,774.82,291.63Z"/><path class="cls-10" d="M520.8,426.08,326.41,464c-2.72.65-5.42,1.37-8.16,1.93-7.31,1.48-15.48,3.47-17.78-6.61s5.25-11.49,13.07-13.06c75.22-15.16,150.38-30.62,225.59-45.87,4.35-.88,8.94-.6,13.41-.86a47.38,47.38,0,0,1-.23,20.22C543.93,432.46,531.47,424.77,520.8,426.08Z"/><path class="cls-11" d="M1236.86,92.86c-42.78.11-35.65-4.7-36.75,36.32-1.08,40.72-9.09,81.06-6.87,122,.27,5.05-.43,10.64-6.61,12.13s-11.13-1.56-14.5-6.29c-2.55-3.56-3.84-8-5.7-12.08,7.37-2,6.41-8.18,6.72-13.65,2.37-41.31,5.12-82.6,6.82-123.94.51-12.6,4.25-19.1,17.64-17.66C1210.66,91.09,1224.25,85.88,1236.86,92.86Z"/><path class="cls-12" d="M1344.49,133.46c-35.57-.29-34.66-.24-36.63,35.13-2.36,42.48-6.46,84.87-9.84,127.29-.27,3.28.17,8.08-3.62,8.53-5.54.64-12.21-1.55-14.6-6.13-3-5.83-7.15-9.74-12.1-13.35,14.12.46,12.42-10.83,13-19,1.85-25.16,2.66-50.4,4.06-75.6.86-15.66,2.13-31.29,3.06-46.94.36-6,1.62-12.09,8.72-12.23C1312.55,130.86,1328.81,126.92,1344.49,133.46Z"/><path class="cls-13" d="M774.82,291.63Q671.89,240.12,569,188.58c-2-1-4.05-2.25-3-5.16l208.94,81.3Q774.88,278.17,774.82,291.63Z"/><path class="cls-14" d="M997.2,291.46Q895.89,240.82,794.62,190.12c-2.65-1.33-7-1.8-6-6.69l208.49,81.65Q997.17,278.27,997.2,291.46Z"/><path class="cls-15" d="M1196.81,308.68c7.48,1.9,14,5.72,20.25,10.11,3.69,6.72,3.38,14.07,3.38,21.39q0,213.29-.08,426.57l-114.61,0c8.57-14.38,9.93-30.93,12.92-46.74,11.41-60.37,23-120.68,36.11-180.73,8.56-39.33,14.55-79.21,21.88-118.81,5.79-31.34,15.16-62,19.13-93.68C1196.54,320.8,1199.42,314.9,1196.81,308.68Z"/><path class="cls-15" d="M974.23,308.33l23.28,9.76q.12,212,.29,424c0,8.34-1.22,16.91,3.29,24.68l-114.75,0q22.5-111.6,45-223.2,21.56-107.68,42.89-215.4C975.53,321.53,976.91,314.94,974.23,308.33Z"/><path class="cls-15" d="M758.12,312.12l16.73,6q.12,212,.27,424c0,8.34-1.22,16.91,3.28,24.68h-118c14.56-30.31,16.14-63.79,22.9-95.95,12.75-60.7,23.88-121.74,35.94-182.6,10.64-53.73,21.63-107.4,32.47-161.09C752.78,321.7,753.25,316,758.12,312.12Z"/><path class="cls-16" d="M520.8,426.08a109.83,109.83,0,0,1,31.51-6.32q0,162,.11,324.06c0,7.79-.93,15.75,3.29,23-18.45.18-36.92-.1-55.33.72-9.81.43-12.26-3.34-12.16-12.54.38-37.47.11-74.94.08-112.41,11.46-17.18,9.05-37.67,13.19-56.56,9.1-41.55,17.32-83.3,25.08-125.13C528.75,449.09,535.38,435.52,520.8,426.08Z"/><path class="cls-17" d="M410.39,643.1c25-2.42,50-1.52,75-.43,0,36.36-.38,72.73.07,109.08.15,11.46-3.61,16.41-15.43,15.89-14.52-.64-29.11-.74-43.62,0-11.62.56-15.76-3.69-15.64-15.44C411.14,715.81,410.59,679.45,410.39,643.1Z"/><path class="cls-18" d="M680.61,394.51c1.27,9.16,1.27,16.45-14.62,16.77-18.32.37-14.39-10.32-15-20.44-.62-11-.65-18.24,15.05-18.65C684.72,371.71,680.36,382.72,680.61,394.51Z"/><path class="cls-19" d="M680.4,348.57c1.54,11.21,1.3,19.2-15.18,19.23-18.39,0-13.54-11.22-14.32-21-.93-11.64.8-18.1,15.77-18.1C683.45,328.72,681,338.27,680.4,348.57Z"/><path class="cls-20" d="M644.88,394.57c1.09,8.92,1.13,16.32-14.62,16.62-18.24.35-14.07-10.4-14.4-20.27-.35-10.22-1.88-18.52,14.45-18.66C648.53,372.11,644.63,382.69,644.88,394.57Z"/><path class="cls-21" d="M616,346.51c-1.3-10.73-.47-17.33,14.07-17.72,16.46-.44,14.94,8.46,14.92,18.94,0,10.84,1.9,20.12-15.41,20C610.42,367.67,617.15,355.49,616,346.51Z"/><path class="cls-5" d="M899.94,348.67c1.84,11.7.6,19-15.34,19.07-17.07.06-13.9-10-13.88-19.63s-2.85-19.43,14.17-19.48S901.13,337.26,899.94,348.67Z"/><path class="cls-22" d="M864.94,387.68c-.68,12.44,3.9,24-14.6,23.43-13.21-.41-16.88-4.46-15-16.27,1.52-9.31-6.44-22.81,14-22.56C864.38,372.47,866.47,378.5,864.94,387.68Z"/><path class="cls-18" d="M900.05,393.45c.94,9.59,2.18,17.83-14.25,17.78-15.91-.05-15.77-7.55-15.16-18.48.56-10-3.68-20.56,14.76-20.56C903.64,372.19,900.18,382.33,900.05,393.45Z"/><path class="cls-20" d="M864.7,353.17c.5,6.48,1.08,14.39-14.9,14.53-19.84.16-13.26-12.47-14.44-22.12-1.37-11.19,1-16.14,14.7-16.74C868.57,328,864.18,339.27,864.7,353.17Z"/><path class="cls-23" d="M1096.21,390.91c-2.93-13.11.77-18.32,15.79-18.58,17.17-.3,13.26,9.91,13.76,19.3.58,11.1,1.42,19.68-15.35,19.63C1092.85,411.21,1095.21,401.55,1096.21,390.91Z"/><path class="cls-24" d="M1125.55,347.91c.68,10.41,2.42,19.74-14.64,20-17.34.25-15-9.18-15.36-20-.34-11.63-.43-19.33,16-19.19S1126.38,337.4,1125.55,347.91Z"/><path class="cls-25" d="M1089.45,395.05c1,8.19,1.66,15.91-14.35,16.19-18,.31-14.72-10-15-20.31-.33-10.51-1.34-18.53,14.82-18.79C1093.4,371.84,1089.1,382.73,1089.45,395.05Z"/><path class="cls-26" d="M1088.81,344.88c1.33,14.45,2.64,22.67-13.67,22.85-19.34.2-13.77-11.64-14.92-21.7-1.47-12.84,2.85-16.75,16.31-17.13C1094.94,328.37,1087.73,340.75,1088.81,344.88Z"/><rect class="cls-27" x="-7.6" y="636.79" width="1552.55" height="22.57" transform="translate(87.82 -91.72) rotate(7.24)"/><rect x="1450.89" y="727.78" width="70.45" height="22.57" transform="translate(105.01 -181.43) rotate(7.24)"/><rect x="1179.65" y="693.31" width="70.45" height="22.57" transform="translate(98.5 -147.51) rotate(7.24)"/><rect x="908.02" y="659.07" width="70.45" height="22.57" transform="translate(92.02 -113.55) rotate(7.24)"/><rect x="636.02" y="624.07" width="70.45" height="22.57" transform="translate(85.44 -79.54) rotate(7.24)"/><rect x="366.43" y="589.56" width="70.45" height="22.57" transform="translate(78.94 -45.84) rotate(7.24)"/><rect x="95.43" y="555.56" width="70.45" height="22.57" transform="translate(72.49 -11.95) rotate(7.24)"/><text class="cls-28" transform="translate(1254.09 716.45) rotate(7.24)">Keep <tspan class="cls-29" x="46.5" y="0">O</tspan><tspan x="60.34" y="0">ut</tspan></text><text class="cls-28" transform="translate(1368.48 730.94) rotate(7.24)">Keep <tspan class="cls-29" x="46.5" y="0">O</tspan><tspan x="60.34" y="0">ut</tspan></text><text class="cls-30" transform="translate(986.63 680.64) rotate(7.24)">Keep <tspan class="cls-31" x="44.17" y="0">O</tspan><tspan x="57.32" y="0">ut</tspan></text><text class="cls-30" transform="translate(1103.46 696.17) rotate(7.24)">Keep <tspan class="cls-31" x="44.17" y="0">O</tspan><tspan x="57.32" y="0">ut</tspan></text><text class="cls-30" transform="translate(555.46 626.17) rotate(7.24)">Keep <tspan class="cls-31" x="44.17" y="0">O</tspan><tspan x="57.32" y="0">ut</tspan></text><text class="cls-30" transform="translate(822.46 661.17) rotate(7.24)">Keep <tspan class="cls-31" x="44.17" y="0">O</tspan><tspan x="57.32" y="0">ut</tspan></text><text class="cls-30" transform="translate(711.46 647.17) rotate(7.24)">Keep <tspan class="cls-31" x="44.17" y="0">O</tspan><tspan x="57.32" y="0">ut</tspan></text><text class="cls-30" transform="translate(440 612.78) rotate(7.24)">Keep <tspan class="cls-31" x="44.17" y="0">O</tspan><tspan x="57.32" y="0">ut</tspan></text><text class="cls-30" transform="translate(287.19 592.23) rotate(7.24)">Keep <tspan class="cls-31" x="44.17" y="0">O</tspan><tspan x="57.32" y="0">ut</tspan></text><text class="cls-30" transform="translate(170.32 577.41) rotate(7.24)">Keep <tspan class="cls-31" x="44.17" y="0">O</tspan><tspan x="57.32" y="0">ut</tspan></text><text class="cls-30" transform="translate(14.71 557.74) rotate(7.24)">Keep <tspan class="cls-31" x="44.17" y="0">O</tspan><tspan x="57.32" y="0">ut</tspan></text><rect class="cls-27" x="-9.22" y="647.05" width="1552.55" height="22.57" transform="translate(-74.89 98.95) rotate(-7.04)"/><rect x="1449.55" y="558.28" width="70.45" height="22.57" transform="translate(-58.6 186.23) rotate(-7.04)"/><rect x="1178.18" y="591.77" width="70.45" height="22.57" transform="translate(-64.75 153.23) rotate(-7.04)"/><rect x="906.5" y="625.59" width="70.45" height="22.57" transform="translate(-70.94 120.2) rotate(-7.04)"/><rect x="634.28" y="658.76" width="70.45" height="22.57" transform="translate(-77.06 87.09) rotate(-7.04)"/><rect x="364.5" y="691.81" width="70.45" height="22.57" transform="translate(-83.14 54.28) rotate(-7.04)"/><rect x="93.48" y="725.71" width="70.45" height="22.57" transform="translate(-89.34 21.33) rotate(-7.04)"/><text class="cls-28" transform="translate(1254.33 604.87) rotate(-7.04)">Keep <tspan class="cls-29" x="46.5" y="0">O</tspan><tspan x="60.34" y="0">ut</tspan></text><text class="cls-28" transform="translate(1368.77 590.7) rotate(-7.04)">Keep <tspan class="cls-29" x="46.5" y="0">O</tspan><tspan x="60.34" y="0">ut</tspan></text><text class="cls-30" transform="translate(986.3 636.14) rotate(-7.04)">Keep <tspan class="cls-31" x="44.17" y="0">O</tspan><tspan x="57.32" y="0">ut</tspan></text><text class="cls-30" transform="translate(1103.36 622.37) rotate(-7.04)">Keep <tspan class="cls-31" x="44.17" y="0">O</tspan><tspan x="57.32" y="0">ut</tspan></text><text class="cls-30" transform="translate(555.03 689.7) rotate(-7.04)">Keep <tspan class="cls-31" x="44.17" y="0">O</tspan><tspan x="57.32" y="0">ut</tspan></text><text class="cls-30" transform="translate(822.41 657.76) rotate(-7.04)">Keep <tspan class="cls-31" x="44.17" y="0">O</tspan><tspan x="57.32" y="0">ut</tspan></text><text class="cls-30" transform="translate(711.39 671.57) rotate(-7.04)">Keep <tspan class="cls-31" x="44.17" y="0">O</tspan><tspan x="57.32" y="0">ut</tspan></text><text class="cls-30" transform="translate(439.82 705.21) rotate(-7.04)">Keep <tspan class="cls-31" x="44.17" y="0">O</tspan><tspan x="57.32" y="0">ut</tspan></text><text class="cls-30" transform="translate(286.67 722.98) rotate(-7.04)">Keep <tspan class="cls-31" x="44.17" y="0">O</tspan><tspan x="57.32" y="0">ut</tspan></text><text class="cls-30" transform="translate(169.75 737.45) rotate(-7.04)">Keep <tspan class="cls-31" x="44.17" y="0">O</tspan><tspan x="57.32" y="0">ut</tspan></text><text class="cls-30" transform="translate(14.1 756.77) rotate(-7.04)">Keep <tspan class="cls-31" x="44.17" y="0">O</tspan><tspan x="57.32" y="0">ut</tspan></text></svg>