<svg id="Layer_1" data-name="Layer 1" xmlns="http://www.w3.org/2000/svg" viewBox="0 0 1536 900"><defs><style>.cls-1{fill:#933;}.cls-2{fill:#333;}.cls-3{fill:#867548;}.cls-4{fill:#009;}.cls-5{fill:#9c9;}.cls-6{fill:#ff3;}.cls-7{fill:#963;stroke:#000;stroke-miterlimit:10;}</style></defs><rect class="cls-1" y="1" width="1536" height="808"/><rect class="cls-2" x="-0.36" y="809" width="1536" height="91"/><rect class="cls-3" x="245" y="600" width="1067" height="26"/><rect class="cls-3" x="1166.47" y="703.27" width="228.27" height="43.1" rx="16.76" transform="translate(1763.93 -665.04) rotate(79.67)"/><rect class="cls-3" x="165.81" y="707.34" width="228.27" height="43.1" rx="15.96" transform="translate(1044.6 570.89) rotate(99.34)"/><rect class="cls-4" x="305" y="79" width="926" height="486"/><rect x="321" y="98" width="893" height="452"/><rect class="cls-5" x="611" width="11" height="197" transform="translate(1233 197) rotate(180)"/><circle class="cls-6" cx="616" cy="225" r="36"/><rect class="cls-5" x="915" width="11" height="197" transform="translate(1841 197) rotate(180)"/><circle class="cls-6" cx="920" cy="225" r="36"/><path d="M169.17,465.56c-2.43-21.43-4.86-42.85-7.3-64.42L110.5,440.72l-.22-.12a8.4,8.4,0,0,1,.66-2,61.85,61.85,0,0,1,3.88-5.65,171,171,0,0,1,14.34-15.18c10-9.73,20.3-18.95,30.65-28.05a1.54,1.54,0,0,0,.61-1.53q-1.21-10.4-2.37-20.81c-.07-.65-.3-.77-.84-.73-9.2.64-16-6.35-16-17.09-.13-16.2,13.38-28,24.32-25.57,8.6,1.92,12.87,11.67,11.48,20.65a28.32,28.32,0,0,1-6.91,15.05,1.7,1.7,0,0,0-.42,1c.34,6.22.73,12.43,1.1,18.64,0,.19,0,.37.08.72l2.49-2.12c4-3.42,7.94-6.85,11.93-10.25a1.82,1.82,0,0,0,.74-1.41c.81-8.58,4.47-15.54,11.12-20.16s13.23-4.87,18.82-.34c6.14,5,7.81,15.27,4.06,24.51-5.87,14.48-20.91,20.06-29.45,10.93-1.18-1.26-1.18-1.26-2.76,0-5.17,4-10.34,8-15.52,11.94a1.6,1.6,0,0,0-.73,1.56c.41,12.92.88,25.82,1.15,38.77a173.92,173.92,0,0,1-.9,23.73,49,49,0,0,1-1.13,5.92,15.38,15.38,0,0,1-1.14,2.58ZM164.66,332.5c-5.58-2.34-12.34,1.4-15.32,8.47s-1,14.66,4.31,16.92c5.53,2.34,12.36-1.44,15.32-8.5S170,334.74,164.66,332.5Zm49.09,35.87c3-6.91,1.09-14.46-4.38-16.94-5.31-2.41-12.14,1.39-15.25,8.49s-1.09,14.52,4.45,17C203.82,379.26,210.64,375.42,213.75,368.37Zm-44.67,23.69c.78-1.85.29-3.74-1.13-4.36s-3.16.41-3.92,2.23-.22,3.75,1.2,4.33S168.31,393.87,169.08,392.06Z"/><circle class="cls-7" cx="159.5" cy="339.5" r="5.5"/><circle class="cls-7" cx="1370" cy="322" r="5.5"/><circle class="cls-7" cx="1334" cy="322" r="5.5"/><path d="M1342.46,327l15.64.66c-.45,9.41-1.34,19.15-1.3,28.89.1,25.94.53,51.89,1,77.84.14,7.74,0,8.17-7.9,8-3-.07-6-.1-9-.21-5.58-.22-6.33-1.1-5.88-6.64,1.25-15.75,2.63-31.5,3.7-47.27C1340.1,367.84,1341.23,347.41,1342.46,327Z"/><path d="M1387.22,319.58c-4.39-.95-8.17-1.33-11.61-2.6-7.84-2.91-14.19.94-14.66,9.28-.08,1.31-.18,2.61-.25,3.56l-19.63-.51c0-1.89,0-4.19-.07-6.49-.3-7.43-3.87-9.86-10.37-6.2-4.69,2.65-8.71,6.53-12.94,10-1.91,1.55-3.59,3.38-6.53,6.2.44-2.87.31-4.6,1-5.95,4.7-9.57,11.22-17.65,20.28-23.44,9.29-6,19.55-3.83,29.59-3.2a5.76,5.76,0,0,1,3,1.75c3.64,3.31,7.6,3.77,12,1.63a8.92,8.92,0,0,1,1.84-.76c7.19-1.76,9.86.28,9.67,7.65A91.08,91.08,0,0,1,1387.22,319.58Z"/></svg>