<svg id="Layer_1" data-name="Layer 1" xmlns="http://www.w3.org/2000/svg" xmlns:xlink="http://www.w3.org/1999/xlink" viewBox="0 0 800 200"><defs><style>.cls-1{font-size:67px;fill:#848120;font-family:Castellar;}.cls-2,.cls-3{stroke:#888;stroke-miterlimit:10;}.cls-2{fill:url(#linear-gradient);}.cls-3{fill:url(#linear-gradient-2);}</style><linearGradient id="linear-gradient" x1="32.02" y1="77.82" x2="119.37" y2="149.67" gradientUnits="userSpaceOnUse"><stop offset="0" stop-color="#fff"/><stop offset="0.02" stop-color="#fffff8"/><stop offset="0.16" stop-color="#ffffc5"/><stop offset="0.3" stop-color="#ffff98"/><stop offset="0.44" stop-color="#ffff74"/><stop offset="0.58" stop-color="#ffff57"/><stop offset="0.72" stop-color="#ffff43"/><stop offset="0.86" stop-color="#ffff37"/><stop offset="1" stop-color="#ff3"/></linearGradient><linearGradient id="linear-gradient-2" x1="756.7" y1="75.27" x2="691.1" y2="148.25" xlink:href="#linear-gradient"/></defs><text class="cls-1" transform="translate(113.17 116.2)">Leader Board</text><path class="cls-2" d="M99.5,158.57c-7.49,2.9-15,5.53-23,6.55-5.38.69-10.75.89-16.06-.51-6.24-1.65-9.1-5.07-9.61-11.72,10.67,1.38,21.14.86,31.35-2.87-1-1.12-2.11-.71-3.14-.65-1.19.06-2.37.29-3.56.41-9.57.94-19.14,1.65-28.52-1.3-8-2.53-13.81-7.56-16.77-15.59-.62-1.67-1.76-3.69-.2-5s3.46.11,4.93,1.05c10.75,6.89,22.47,8.92,35.05,6.88-5.08-.88-10.18-1.61-15.22-2.66-22.19-4.57-35.35-18.21-40-40.24-.24-1.13-1.09-2.67.17-3.24,1.61-.74,2.16,1.17,2.87,2.17,4.18,5.87,8.33,11.75,13.71,16.6,4.32,3.89,9,7.12,15,8.32C32.22,107.09,21.63,94.75,17,78c-1.33-4.86-2.15-9.88-1.09-15.07,2.51.47,2.8,2.51,3.64,4,4,6.85,7.68,13.88,12.62,20.13A44.89,44.89,0,0,0,46.75,99.47c1.22.63,2.42,2,4.5.85-24.63-17.23-30.53-42-29.38-69.52l1.38-.51c2,6.8,3.88,13.63,6,20.4a79.72,79.72,0,0,0,8.9,19.52c3.81,6,8.18,11.46,14.45,15.72.55-2.54-1-3.35-1.88-4.39C34.74,62.08,28.07,39.69,29.35,14.75c.06-1.11-.56-2.89.87-3.12,1.76-.28,1.73,1.58,2,2.84a159.41,159.41,0,0,0,8.43,28.79c8.09,19.68,21.62,35,38.4,47.68,12.46,9.43,24.41,19.41,33.88,32,10.56,14,16.39,29.47,13.73,47.35-1.51,10.16-7.48,16.77-15.49,17.1-3.39.14-6.92-.08-8.49-3.65-1.43-3.24.89-5.65,2.86-7.95s4.74-4,6.4-7.9c-4.4,2.3-7.72,4.67-11.52,6.14a33.69,33.69,0,0,1-15.36,2.45,15.27,15.27,0,0,1-6.75-2.24c-1.9-1.19-4.48-2.65-4.34-4.77s3.22-1.43,5-1.93C86.18,165.43,93.48,163.55,99.5,158.57Z"/><path class="cls-3" d="M699.34,156.09c5.69,3.16,11.94,4.76,18.2,6.15,3.63.81,3,2,1.06,3.88-5.28,5.33-11.83,5.29-18.47,4.08a40,40,0,0,1-14.39-6c-1.21-.77-2.22-2.13-5.55-1.08,3.45,3,6.46,5.26,9.11,7.92,1.8,1.79,3.25,4.09,2.06,6.88s-3.87,3.51-6.66,3.7c-7.34.5-13.38-3.79-16-11.86-3.51-11-2.43-21.94,1.34-32.62,5.33-15.12,15.49-26.88,27.19-37.38,6-5.39,12.31-10.51,18.78-15.35C740.85,65.8,755.55,41.1,761.4,10.88c.37-1.89,0-5.2,2.33-5,1.9.13,1,3.36,1.11,5.21.78,25.16-6.7,47.47-23.16,66.65a5.85,5.85,0,0,0-1.48,2.82c9.55-5.92,15.61-14.77,20.38-24.75s7-20.71,10.34-31.92c8,20.67-7.38,56.74-30.44,72.14,5-.67,8.61-3.1,12-5.63,7.78-5.72,12.93-13.63,17.67-21.84,1.8-3.11,3.53-6.25,5.34-9.35.49-.84.85-2.23,2.16-1.8s.72,1.79.76,2.75a43.72,43.72,0,0,1-4,19.62A66.94,66.94,0,0,1,745,111.94c7.64-1.23,13.65-5.5,19.12-10.74s9.57-11.78,14.38-18c2.8,7.75-6.6,26.5-16.86,34.42C750.89,125.9,738,128.13,725,130c10.38,2.36,22,.07,32.47-5.87,2.08-1.19,4.56-3.89,6.74-1.77s-.26,4.8-1.3,6.95c-4.89,10.13-13.85,14-24.37,15.06a86,86,0,0,1-21.07-.59c-1.91-.29-3.87-.25-6.27-.38,6.33,3.5,17.28,5,27.58,4.08,1.45-.14,3.46-1.08,4.28.08,1.08,1.52,0,3.52-.91,5-3.13,5.48-8.56,6.65-14.22,7.08-9.28.7-18.1-1.63-26.82-4.46-1.73-.61-3.73-.45-5.17-1.88C697,154.41,698.65,154.63,699.34,156.09Z"/></svg>