<svg id="Layer_1" data-name="Layer 1" xmlns="http://www.w3.org/2000/svg" viewBox="0 0 400 400"><defs><style>.cls-1{fill:#333;}.cls-2{fill:#fccb98;}</style></defs><path class="cls-1" d="M325.09,138.32A136.35,136.35,0,1,1,188.74,2,136.34,136.34,0,0,1,325.09,138.32ZM188.74,26.94A109.69,109.69,0,1,0,298.43,136.62,109.69,109.69,0,0,0,188.74,26.94Z"/><rect class="cls-1" x="95.41" y="242.26" width="36.92" height="154.62" rx="9.23" transform="translate(166.13 -15.63) rotate(28.47)"/><path class="cls-2" d="M107.9,318.85l5.91,2.33c14.35,5.65,16.69,7.68,14.23,14.35-1.95,5.29-3.74,6.83-14.62,2-2.63-1.18-5.37-2.12-8.24-3.25l-1.81,4.61c5.3,2.09,10.5,4.05,15.62,6.17a8.1,8.1,0,0,1,5.13,9.24,7.65,7.65,0,0,1-7.48,5.66,10.36,10.36,0,0,1-3.34-.75c-3.38-1.25-6.72-2.6-10.08-3.9a4.92,4.92,0,0,0-.9-.08l-1.71,4.34c2,.8,4.1,1.55,6.09,2.41,4.39,1.89,6.63,6.68,5,10.49s-6.11,5.43-10.63,3.68c-3.46-1.34-6.9-2.71-10.6-4.17l-1.71,4.33a37.92,37.92,0,0,1,3.62,2.36,7.44,7.44,0,0,1,2,9.68A7.61,7.61,0,0,1,85,391.52c-10.4-4-20.88-7.91-31.12-12.32-14.52-6.25-24.08-26.49-20.41-42,4.27-18.11,16.26-28.28,33.76-32.06,18.25-3.95,36.66-7.14,55-10.47a23.36,23.36,0,0,1,8.58.18c3.43.71,4.63,3.27,2.95,6.31a16.11,16.11,0,0,1-5.18,5.86c-5.6,3.48-11.5,6.49-17.35,9.57a15.53,15.53,0,0,1-3.65.94Z"/></svg>