<svg id="Layer_1" data-name="Layer 1" xmlns="http://www.w3.org/2000/svg" viewBox="0 0 400 400"><defs><style>.cls-1{fill:#333;}.cls-2{fill:#fccb98;}</style></defs><path class="cls-1" d="M325.09,138.32A136.35,136.35,0,1,1,188.74,2,136.34,136.34,0,0,1,325.09,138.32ZM188.74,26.94A109.69,109.69,0,1,0,298.43,136.62,109.69,109.69,0,0,0,188.74,26.94Z"/><rect class="cls-1" x="279.97" y="231.66" width="36.92" height="154.62" rx="9.23" transform="translate(-114.5 190.61) rotate(-30)"/><path class="cls-2" d="M294.7,313.68l5.06-3.82c12.32-9.28,15.28-10.21,19.68-4.62,3.49,4.42,3.86,6.75-6,13.47-2.38,1.63-4.6,3.47-7.07,5.33l3,3.95c4.55-3.43,8.94-6.83,13.43-10.09a8.11,8.11,0,0,1,10.56.46,7.65,7.65,0,0,1,.91,9.34,10.1,10.1,0,0,1-2.39,2.45c-2.83,2.23-5.72,4.37-8.59,6.56a4,4,0,0,0-.54.72l2.8,3.72c1.76-1.32,3.47-2.68,5.24-3.92,3.91-2.76,9.17-2.15,11.54,1.27s1.43,8-2.43,11c-2.94,2.25-5.92,4.47-9.09,6.86l2.79,3.71a41.39,41.39,0,0,1,3.91-1.85,7.43,7.43,0,0,1,9.27,3.39,7.6,7.6,0,0,1-2.13,9.64c-8.88,6.75-17.66,13.66-26.78,20.09-12.92,9.1-35.16,6.67-46.49-4.58-13.2-13.1-15.6-28.65-9.67-45.54,6.17-17.62,13.09-35,19.86-52.39a23.14,23.14,0,0,1,4.64-7.21c2.39-2.56,5.2-2.25,6.92.77a16.2,16.2,0,0,1,2.28,7.48c0,6.6-.48,13.2-.91,19.8a15.71,15.71,0,0,1-1.11,3.6Z"/></svg>