<svg id="Layer_1" data-name="Layer 1" xmlns="http://www.w3.org/2000/svg" viewBox="0 0 1536 900"><defs><style>.cls-1{fill:#933;}.cls-2,.cls-5{stroke:#000;stroke-miterlimit:10;}.cls-3{fill:#888;}.cls-4{font-size:43px;font-family:Castellar;}.cls-5,.cls-6{fill:#633;}</style></defs><rect class="cls-1" width="1536" height="808"/><rect class="cls-2" x="504" y="202" width="528" height="605"/><rect y="808" width="1536" height="92"/><rect class="cls-3" x="504" y="73" width="528" height="77"/><text class="cls-4" transform="translate(508.98 125.94)">Hazardous Section</text><polygon class="cls-5" points="746.5 782.33 503.12 764.8 503.9 808.47 746.5 782.33"/><rect class="cls-5" x="503" y="202" width="243.5" height="580.5"/><circle class="cls-3" cx="733.5" cy="492.5" r="10.5"/><rect class="cls-6" x="504.55" y="781" width="231.45" height="2"/><polygon class="cls-5" points="788 781.89 1032.88 764.37 1032.1 808.04 788 781.89"/><rect class="cls-5" x="788" y="201.57" width="245" height="580.5" transform="translate(1821 983.63) rotate(180)"/><ellipse class="cls-3" cx="801.08" cy="492.07" rx="10.56" ry="10.5"/><rect class="cls-6" x="798.56" y="780.57" width="232.88" height="2" transform="translate(1830.01 1563.13) rotate(180)"/></svg>