<svg id="Layer_1" data-name="Layer 1" xmlns="http://www.w3.org/2000/svg" viewBox="0 0 400 400"><defs><style>.cls-1{fill:#161616;}.cls-2{fill:#fefefe;}.cls-3{fill:#ed1968;}.cls-4{fill:#ee1e3a;stroke:#d0009e;}.cls-4,.cls-5,.cls-6{stroke-miterlimit:10;}.cls-5,.cls-6{fill:#0f6;}.cls-5{stroke:#0f6;}.cls-6{stroke:#71bf4c;}</style></defs><path class="cls-1" d="M254.53,93c4,1.89,7.56,3.54,11.08,5.26a50.8,50.8,0,0,1,11.94,7.65,15.84,15.84,0,0,1,5.6,12.49q.19,94.85.62,189.68c.08,20.34.14,40.67.41,61a11.08,11.08,0,0,1-5,9.84c-4.8,3.49-10.29,5.49-15.89,7.19-12.61,3.83-25.59,5.78-38.67,7a251.6,251.6,0,0,1-75.76-4.16c-8-1.68-15.83-3.8-23.1-7.62a35,35,0,0,1-4.58-2.95,10.38,10.38,0,0,1-4.36-8.95q.47-71.46.72-142.91.22-54.48.33-109a14.11,14.11,0,0,1,4-10.08c4.29-4.6,9.76-7.45,15.32-10.14,3-1.42,5.93-2.79,9.43-4.43-6.52-1.37-12.43-2.62-18-5.05a38.65,38.65,0,0,1-4-2A8.3,8.3,0,0,1,120,78.11q0-28.12-.12-56.26c0-2.34,1.48-3.38,3.26-4.18a49,49,0,0,1,13-3.39c19.68-3,39.52-3.73,59.39-3.89a512.51,512.51,0,0,1,58.77,2.47,120.49,120.49,0,0,1,19.15,3.26,26.39,26.39,0,0,1,4.87,1.81,4.53,4.53,0,0,1,2.73,4.53q-.09,28.13,0,56.27c0,3.11-1.66,5-4,6.57-3.9,2.67-8.36,4.08-12.85,5.33C261.26,91.47,258.16,92.1,254.53,93Z"/><path class="cls-2" d="M280.34,243.52c0,41.7,0,83.4.08,125.11a8.41,8.41,0,0,1-4.41,7.94c-6.13,3.79-12.92,5.89-19.83,7.59-23.47,5.8-47.31,7.27-71.38,5.87-15.75-.91-31.31-3-46.44-7.7a53.5,53.5,0,0,1-13.63-5.94,8.2,8.2,0,0,1-4.16-7.62q.51-74.77.73-149.55c.13-33.47.29-66.94.25-100.42a13.19,13.19,0,0,1,5.33-11,62.76,62.76,0,0,1,12.84-7.56,35.21,35.21,0,0,0,4.92-2.32c5.51-3.8,11.37-3.64,17.77-2.91a339.91,339.91,0,0,0,84-.86,4.82,4.82,0,0,1,3,.35c5.23,2.59,10.53,5.06,15.76,7.67a39.16,39.16,0,0,1,10.91,7.46,10.55,10.55,0,0,1,3.31,7.6q-.06,63.13,0,126.29Z"/><path class="cls-3" d="M123.68,25.86c14.4,4.31,29.1,5.11,43.77,6a585.59,585.59,0,0,0,68.33-.1c11.84-.69,23.68-1.6,35.3-4.18,2.07-.46,4.09-1.12,6.28-1.73V43.46c0,11.31-.09,22.63.07,33.95a5.52,5.52,0,0,1-3.27,5.46c-5.12,2.81-10.71,4.27-16.35,5.45-22,4.59-44.24,5.45-66.59,5-15.36-.34-30.65-1.48-45.76-4.46a74.93,74.93,0,0,1-16.11-4.7,17.45,17.45,0,0,1-4.25-2.55,3.59,3.59,0,0,1-1.44-2.85C123.68,61.16,123.68,43.59,123.68,25.86Z"/><path class="cls-4" d="M277.15,21.62c-4.42,2.22-9,2.87-13.48,3.54-23.31,3.46-46.78,4-70.29,3.78a423.06,423.06,0,0,1-52.76-3.27,94.12,94.12,0,0,1-12.57-2.39,12.76,12.76,0,0,1-4.16-1.75A20,20,0,0,1,131.27,19c13.21-2.7,26.62-3.62,40-4.26q29.88-1.43,59.77.07c13.66.7,27.31,1.59,40.7,4.67A13.52,13.52,0,0,1,277.15,21.62Z"/><rect class="cls-5" x="121.5" y="213.5" width="158" height="159"/><path class="cls-6" d="M279,213.71c-4.53,2.22-9.19,2.87-13.81,3.54-23.88,3.46-47.92,4-72,3.78a443.78,443.78,0,0,1-54.05-3.27,98.19,98.19,0,0,1-12.87-2.39,13.27,13.27,0,0,1-4.27-1.75,20.93,20.93,0,0,1,7.56-2.53c13.53-2.7,27.27-3.61,41-4.26q30.6-1.43,61.22.07c14,.7,28,1.59,41.7,4.67A14.09,14.09,0,0,1,279,213.71Z"/><path class="cls-5" d="M280.07,373.81c-4.54,3.67-9.19,4.76-13.82,5.87-23.87,5.73-47.92,6.59-72,6.26-18.08-.25-36.12-1.52-54.06-5.42a64.44,64.44,0,0,1-12.87-4,11.19,11.19,0,0,1-4.26-2.9c2.4-2.55,5-3.35,7.55-4.2,13.54-4.48,27.28-6,41-7.06a384,384,0,0,1,61.23.12c14,1.16,28,2.64,41.7,7.75A11.34,11.34,0,0,1,280.07,373.81Z"/><path class="cls-5" d="M270,377.68c-4.07,3.72-8.25,4.82-12.4,5.94-21.45,5.79-43,6.65-64.66,6.32-16.24-.25-32.44-1.53-48.55-5.47a53.77,53.77,0,0,1-11.56-4,10.24,10.24,0,0,1-3.83-2.93c2.16-2.59,4.5-3.39,6.79-4.25,12.15-4.52,24.49-6.06,36.84-7.13a306.06,306.06,0,0,1,55,.12c12.57,1.17,25.13,2.66,37.45,7.82A10.29,10.29,0,0,1,270,377.68Z"/></svg>