<svg id="Layer_1" data-name="Layer 1" xmlns="http://www.w3.org/2000/svg" viewBox="0 0 600 600"><defs><style>.cls-1{fill:#231f20;}.cls-2{fill:#333;}.cls-3{fill:#565858;}.cls-4{fill:#cb3233;}.cls-5{fill:#ee3c23;}.cls-6{fill:#434444;}.cls-7{fill:#ddd;}.cls-8{fill:#4d4d4d;}.cls-10,.cls-8,.cls-9{stroke:#231f20;stroke-miterlimit:10;}.cls-9{fill:#fff;}</style></defs><path class="cls-1" d="M361.08,381.3c53.82,69.18,110.38,133.82,135.4,218.64-17.23.6-34.16-1.93-51.24,1.8-1-1.29-1.5-1.84-2.54-3.29-22.37-30.91-34.3-59.47-63.12-87.05-1.56-1.5-2.2-2.32-3.61-3.7-10-43.29-29.3-88.89-22.44-133.92C356.69,376.54,358.31,377.74,361.08,381.3Z"/><path class="cls-1" d="M197.77,432.61c-20.5,56.18-39.18,111.2-57.83,168.12,19.57-.56,39.36-.09,58.93,0,.69-1.35.94-1.94,1.49-3,11.69-22.69,18.45-45.88,33.79-66.34.74-1.14,1.46-2.3,2.19-3.45-7.09-36.36-8.22-74.1-34.27-102.94A27.18,27.18,0,0,0,197.77,432.61Z"/><path class="cls-1" d="M346.91,592.22c-1.4-41-10.55-81.14-14.75-121.83-1.42-13.74-2.71-27.49-4.06-41.23q-19.64-18.6-4-40.62c-16.81-6.27-34-10.91-52-12-12.55,14.53-30.25,21.48-46,31.28-8.35,5.19-17.94,9.51-24,17.16,26.05,28.84,27.18,66.58,34.27,102.94,5.21-8.22,10.2-16.6,16.11-24.27,4.18-5.43,9.94-4.32,12.75,2,14.16,31.75,25,63.85,9.76,95.09,25.89.45,45.59.14,71.48,0C346.27,597.8,347.57,595.41,346.91,592.22Z"/><path class="cls-1" d="M391,590c.59-3.56-.12-6.67.16-9.5l0-19.32c-7.16-22.62-1.66-45.82-3-68.72-.34-6-3.86-14.18,5.23-17.93,1.95-24.27-6.51-46-18.9-65.71-8.45-13.43-13.38-30.31-29.65-37.82-5.71,6.82-15.89,8.62-19.74,17.54,2.06,2.4,3.76,5.31,6.25,7.13,11,8,15.27,17.69,8.3,30.51,9.21,17.13,10.95,36.55,16.76,54.72.84,2.16-1.14,6.53,2.29,10.13.36,3.11.71,6.21,1.07,9.32,1.46,2.78,1.56,6.31,2.16,10q.48,7.83,1,15.68c5.1,20.88,2.29,42,1.7,63l-.06,8.44c.05,1.28.39,2,.5,3.27,8.66-.13,17.07.22,25.74-.06Z"/><path class="cls-2" d="M391.48,560.69c-7.16-22.61-1.66-45.82-3-68.72-.34-6-3.86-14.17,5.23-17.93C393.84,503,397.42,531.94,391.48,560.69Z"/><path class="cls-3" d="M412.35,356.39l2.28-1.33C414.36,356.35,413.53,356.68,412.35,356.39Z"/><path class="cls-4" d="M365.21,596.36c0-2.81,0-5.52,0-8.33-.57-21-1.15-41.94-1.72-62.94-.32-5.23-.86-9.93-1.18-15.15-.65-3-.78-6.43-1.92-10-.35-3.1-.74-6.19-1.1-9.3-1.23-3.65-1.12-7.18-2.26-10.15-5.8-18.17-8-37.2-17.17-54.33l-11.6,3c1.35,13.75,1.33,26.86,2.75,40.6,4.2,40.7,13.35,80.8,14.74,121.84l.84,9.07v.07c5.63,0,18.64,0,18.64,0S365.11,597.64,365.21,596.36Z"/><path class="cls-2" d="M265.16,505.29c-2.81-6.29-8.56-7.4-12.75-2-5.92,7.68-10.91,16.08-16.13,24.31.31,1.58.62,3.15.95,4.73-.33-1.58-.64-3.15-.95-4.73-.72,1.14-1.43,2.29-2.17,3.41,10.06,11.62,13.42,25.73,16.43,40.38,2,9.52,4,19.76,4.18,29.31,5.75.1,14.49-.1,20.24,0C290.2,569.49,279.33,537,265.16,505.29Z"/><path class="cls-5" d="M339.7,426.14,334,427.63l-5.87,1.53c-13.09-12.4-14.61-26-4.17-40.7l.87.21.66-.62c2.06,2.41,3.76,5.31,6.25,7.13C342.73,403.22,346.67,413.32,339.7,426.14Z"/><path class="cls-2" d="M365,588.58q-.85-31.51-1.7-63C368.36,546.45,365.55,567.54,365,588.58Z"/><path class="cls-6" d="M408.45,160.46A269.36,269.36,0,0,1,322.05,171c-72.42-2.66-89.29,10.74-92.87,82.51-.51,10.27-1.1,20.53-1.87,34.91-14.75-14.74-22.26-28.72-29.1-43.12A253.65,253.65,0,0,1,186.06,179c-3.57-66.11,40.7-107.1,107.34-99.75,24.36,2.68,48.8,5.32,73.26,6.18,12.74.44,25.29,2,36.53-11.8,10.34-12.7,20.28,1,26,10.85C441.51,105.78,431.92,139.49,408.45,160.46Z"/><path class="cls-7" d="M409.92,230c-.56,11.94-1,26.22-2,40.47a133.16,133.16,0,0,1-5.24,30.4c-2.69,8.75-7.24,16.59-12.08,24.26a309.37,309.37,0,0,1-34.4,44.65c-9.18,10-18.78,19.45-30.13,26.94a62.15,62.15,0,0,1-10,5.15,15.39,15.39,0,0,1-12.52-.1c-7.06-3.06-13.05-7.71-18.65-12.81-23.93-21.74-43.69-46.88-60.61-74.38-6.46-10.51-9.32-22.06-11.06-34-3.53-24.22-3.26-48.6-2.59-72.94.42-15,1.95-29.89,3-44.83.2-2.77.68-3,3.46-2.36a349,349,0,0,0,52.62,8.79c11.58,1,23.22,1.42,34.84,1.66a394.87,394.87,0,0,0,87-8.09c3.59-.73,7.15-1.65,10.73-2.46,2.58-.59,3.51,0,3.79,2.61.82,8,1.8,16,2.21,24C409.1,200.44,409.39,214,409.92,230Z"/><path class="cls-1" d="M411.42,230l-1.15,23.71-.57,11.86c-.11,2-.17,4-.31,5.93s-.31,4-.53,5.95a125.9,125.9,0,0,1-4.59,23.49c-2.33,7.75-6.16,14.9-10.3,21.67A301.45,301.45,0,0,1,366,361q-7.73,9.06-16.06,17.55A155,155,0,0,1,332,394.36c-1.6,1.2-3.24,2.34-4.91,3.45a50.38,50.38,0,0,1-5.27,3.05c-1.81.91-3.6,1.73-5.51,2.51A16.87,16.87,0,0,1,310,404.6a17.36,17.36,0,0,1-6.32-1.25,48.36,48.36,0,0,1-5.5-2.7,68.65,68.65,0,0,1-9.92-6.91c-3.11-2.55-6-5.3-8.88-8l-4.27-4.14-4.2-4.22q-8.31-8.52-16-17.64a368.05,368.05,0,0,1-28-38.38c-1.07-1.66-2.1-3.36-3.16-5s-2.08-3.45-3-5.23A73.29,73.29,0,0,1,216.1,300a127.36,127.36,0,0,1-4.85-23.43,359,359,0,0,1-2.43-47.47c.05-7.92.23-15.81.47-23.72s.84-15.83,1.47-23.7l1-11.81.45-5.89a20.22,20.22,0,0,1,.39-3.25,3.16,3.16,0,0,1,.63-1.22,2.63,2.63,0,0,1,1.48-.85,5.62,5.62,0,0,1,2.05.1l5.81,1.36c1.91.44,3.83.86,5.76,1.28q5.76,1.23,11.57,2.27,11.61,2.08,23.33,3.38c7.81.83,15.66,1.38,23.52,1.74s15.76.58,23.62.64,15.72-.17,23.58-.61a402.83,402.83,0,0,0,46.84-5.49c3.87-.71,7.74-1.41,11.58-2.24l5.76-1.32,2.87-.67a12.65,12.65,0,0,1,3.34-.49,3.37,3.37,0,0,1,1.21.27,3,3,0,0,1,1.15.85,4.44,4.44,0,0,1,.89,2,14.37,14.37,0,0,1,.22,1.62l.15,1.47.63,5.88c.42,3.93.82,7.88,1.11,11.84s.37,7.93.53,11.88l.41,11.86Zm-3,0-.83-23.63-.41-11.81c-.15-3.94-.21-7.88-.53-11.78S406,174.9,405.56,171l-.63-5.89-.16-1.47c0-.52-.09-1-.16-1.32a2,2,0,0,0-.25-.69s0,0,0,0a.61.61,0,0,0-.23,0,10.94,10.94,0,0,0-2.49.43l-2.89.67L392.93,164c-3.87.83-7.77,1.54-11.67,2.25a402.12,402.12,0,0,1-47.19,5.53q-11.88.68-23.77.62c-7.93-.07-15.82-.3-23.73-.65s-15.82-.91-23.71-1.75-15.74-2-23.54-3.4c-3.91-.7-7.79-1.47-11.67-2.3q-2.91-.61-5.8-1.29l-5.72-1.33a3.58,3.58,0,0,0-.9-.1.44.44,0,0,0,.22-.14c.06-.1,0,0,0,.09a19.3,19.3,0,0,0-.27,2.64l-.46,5.91-.95,11.8c-.63,7.86-1.19,15.72-1.46,23.57s-.42,15.77-.47,23.64a355.28,355.28,0,0,0,2.41,47.07A124.84,124.84,0,0,0,219,299a71.52,71.52,0,0,0,4.43,10.7c.91,1.71,1.84,3.36,2.9,5s2.07,3.34,3.14,5a364.31,364.31,0,0,0,27.81,38.07q7.57,9,15.81,17.48l4.15,4.18,4.24,4.09c2.88,2.67,5.72,5.4,8.72,7.85a66.62,66.62,0,0,0,9.48,6.62,47.7,47.7,0,0,0,5.13,2.52,14.34,14.34,0,0,0,5.23,1,14.1,14.1,0,0,0,5.22-1c1.74-.71,3.55-1.53,5.26-2.4a47.87,47.87,0,0,0,5-2.87c1.62-1.09,3.22-2.19,4.78-3.36a153.44,153.44,0,0,0,17.56-15.5c5.5-5.6,10.82-11.42,15.92-17.39A299.27,299.27,0,0,0,391.41,321c4.09-6.68,7.77-13.59,10-21a123.34,123.34,0,0,0,4.48-22.93q.31-2.91.52-5.84c.14-2,.2-3.94.3-5.9l.58-11.8Z"/><ellipse class="cls-8" cx="263.24" cy="233.2" rx="25.5" ry="12"/><ellipse class="cls-8" cx="356.24" cy="233.2" rx="25.5" ry="12"/><ellipse class="cls-9" cx="263.62" cy="233.2" rx="22.13" ry="9.75"/><ellipse class="cls-9" cx="356.62" cy="233.2" rx="22.13" ry="9.75"/><ellipse class="cls-10" cx="263.62" cy="233.57" rx="6.38" ry="9.38"/><ellipse class="cls-10" cx="356.62" cy="233.57" rx="6.38" ry="9.38"/></svg>